<svg id="chat" xmlns="http://www.w3.org/2000/svg" width="18" height="18" viewBox="0 0 18 18">
  <path id="Path_6979" data-name="Path 6979" d="M13.016,80H1.7A1.7,1.7,0,0,0,0,81.7v9.055a1.7,1.7,0,0,0,1.7,1.7H8.126a.562.562,0,0,1,.329.105l3.666,2.619a.567.567,0,0,0,.895-.461c0-2.31,0-2.264,0-2.264a1.7,1.7,0,0,0,1.7-1.7V81.7A1.7,1.7,0,0,0,13.016,80ZM3.4,87.923a1.7,1.7,0,1,1,1.7-1.7A1.7,1.7,0,0,1,3.4,87.923Zm3.961,0a1.7,1.7,0,1,1,1.7-1.7A1.7,1.7,0,0,1,7.357,87.923Zm3.961,0a1.7,1.7,0,1,1,1.7-1.7A1.7,1.7,0,0,1,11.318,87.923Z" transform="translate(0 -77.28)" fill="#ced3e2"/>
  <path id="Path_6981" data-name="Path 6981" d="M109.017,0H97.7A1.7,1.7,0,0,0,96,1.7h9.621a2.833,2.833,0,0,1,2.83,2.83V12.45h.566a1.7,1.7,0,0,0,1.7-1.7V1.7A1.7,1.7,0,0,0,109.017,0Z" transform="translate(-92.715)" fill="#ced3e2"/>
</svg>
