<svg xmlns="http://www.w3.org/2000/svg" width="16.049" height="13" viewBox="0 0 16.049 13" class="svg mr-2 replaced-svg">
  <g id="left-arrow" transform="translate(113.549 -85.833)">
    <g id="Group_192" data-name="Group 192" transform="translate(-113 86.333)">
      <path id="Path_564" data-name="Path 564" d="M5.122,92.015l6.25-5.55a.4.4,0,0,1,.589,0,.476.476,0,0,1,0,.636L6.423,91.883H19.583a.451.451,0,0,1,0,.9H6.423l5.539,4.782a.476.476,0,0,1,0,.636.4.4,0,0,1-.589,0l-6.25-5.55A.476.476,0,0,1,5.122,92.015Z" transform="translate(-5 -86.333)" fill="#7F828C" stroke="#7F828C" stroke-width="1"></path>
    </g>
  </g>
</svg>
