<svg xmlns="http://www.w3.org/2000/svg" width="15.299" height="15.299" viewBox="0 0 15.299 15.299">
  <g id="pagination-right" transform="translate(0.15 0.15)">
    <g id="Group_6053" data-name="Group 6053">
      <g id="Group_6052" data-name="Group 6052">
        <path id="Path_7124" data-name="Path 7124" d="M179.415,0h-7.5a1.251,1.251,0,0,0-1.25,1.25V3.437a.312.312,0,0,0,.625,0V1.25a.626.626,0,0,1,.625-.625h7.5a.626.626,0,0,1,.625.625v12.5a.626.626,0,0,1-.625.625h-7.5a.626.626,0,0,1-.625-.625V11.562a.312.312,0,0,0-.625,0v2.187a1.251,1.251,0,0,0,1.25,1.25h7.5a1.251,1.251,0,0,0,1.25-1.25V1.25A1.251,1.251,0,0,0,179.415,0Z" transform="translate(-165.666)" fill="#354463" stroke="#354463" stroke-width="0.3"/>
        <path id="Path_7125" data-name="Path 7125" d="M6.976,134.959a.313.313,0,0,0,.422.461l3.75-3.437a.313.313,0,0,0,0-.461L7.4,128.085a.313.313,0,0,0-.422.461l3.158,2.894H.312a.312.312,0,0,0,0,.625h9.821Z" transform="translate(0 -124.253)" fill="#354463" stroke="#354463" stroke-width="0.3"/>
      </g>
    </g>
  </g>
</svg>
