<svg xmlns="http://www.w3.org/2000/svg" width="30" height="30" viewBox="0 0 30 30">
  <g id="paper" transform="translate(-5.977)">
    <path id="Path_6976" data-name="Path 6976" d="M159.265,28.4a.939.939,0,0,1-.7-1.561L176.289,6.9a.938.938,0,1,1,1.4,1.246L159.967,28.09A.936.936,0,0,1,159.265,28.4Z" transform="translate(-142.696 -6.202)" fill="#fff"/>
    <path id="Path_6977" data-name="Path 6977" d="M32.256.126C31.995.2,33.72-.533,7.792,10.716a2.987,2.987,0,0,0-.6,5.148l7.919,5.864v4.992A3.073,3.073,0,0,0,20,29.013l2.479-1.824L25.473,29.4a3.034,3.034,0,0,0,4.754-1.729L35.9,3.447A2.853,2.853,0,0,0,32.256.126Zm-.074,2.063L15.964,20.007,8.351,14.369a1.13,1.13,0,0,1,.222-1.937L32.181,2.189Zm-13.3,25.3a1.154,1.154,0,0,1-1.854-.765V23.153l3.859,2.858Zm9.468-.229a1.1,1.1,0,0,1-1.718.652L17.5,21.145,34.038,2.975c-.009.052-5.608,23.952-5.686,24.282Z" transform="translate(0 0)" fill="#fff"/>
  </g>
</svg>
