<svg xmlns="http://www.w3.org/2000/svg" width="21" height="21" viewBox="0 0 21 21">
  <path id="phone" d="M22.833,17.583a13.254,13.254,0,0,1-4.165-.665,1.191,1.191,0,0,0-1.19.28l-2.567,2.567a17.553,17.553,0,0,1-7.688-7.688L9.79,9.5a1.12,1.12,0,0,0,.292-1.167,13.254,13.254,0,0,1-.665-4.165A1.17,1.17,0,0,0,8.25,3H4.167A1.17,1.17,0,0,0,3,4.167,19.832,19.832,0,0,0,22.833,24,1.17,1.17,0,0,0,24,22.833V18.75A1.17,1.17,0,0,0,22.833,17.583ZM21.667,13.5H24A10.5,10.5,0,0,0,13.5,3V5.333A8.161,8.161,0,0,1,21.667,13.5ZM17,13.5h2.333A5.835,5.835,0,0,0,13.5,7.667V10A3.5,3.5,0,0,1,17,13.5Z" transform="translate(-3 -3)" fill="#111"/>
</svg>
