<svg xmlns="http://www.w3.org/2000/svg" width="14" height="14" viewBox="0 0 14 14">
  <g id="share" transform="translate(-8 -8)">
    <path id="Path_6715" data-name="Path 6715" d="M19.375,16.75a2.626,2.626,0,0,0-2.3,1.361L13.123,15.8a2.606,2.606,0,0,0,0-1.609l3.953-2.306a2.72,2.72,0,1,0-.289-.844L12.716,13.42a2.625,2.625,0,1,0,0,3.161l4.071,2.375a2.623,2.623,0,1,0,2.588-2.2Zm0-7.875a1.75,1.75,0,1,1-1.75,1.75A1.752,1.752,0,0,1,19.375,8.875Zm-8.75,7.875A1.75,1.75,0,1,1,12.375,15,1.752,1.752,0,0,1,10.625,16.75Zm8.75,4.375a1.75,1.75,0,1,1,1.75-1.75A1.752,1.752,0,0,1,19.375,21.125Z" transform="translate(0)" fill="#fff"/>
  </g>
</svg>
