<svg id="slide-left" xmlns="http://www.w3.org/2000/svg" width="20" height="20" viewBox="0 0 20 20">
  <path id="Path_7122" data-name="Path 7122" d="M172.362,0h10.176a1.683,1.683,0,0,1,1.7,1.667V4.583a.424.424,0,0,1-.848,0V1.667a.842.842,0,0,0-.848-.833H172.362a.842.842,0,0,0-.848.833V18.333a.842.842,0,0,0,.848.833h10.176a.842.842,0,0,0,.848-.833V15.417a.424.424,0,0,1,.848,0v2.917a1.683,1.683,0,0,1-1.7,1.667H172.362a1.683,1.683,0,0,1-1.7-1.667V1.667A1.683,1.683,0,0,1,172.362,0Z" transform="translate(-170.666)" fill="#fff"/>
  <path id="Path_7123" data-name="Path 7123" d="M5.8,137.442a.424.424,0,0,1-.573.625L.137,133.4a.424.424,0,0,1,0-.625l5.088-4.664a.424.424,0,0,1,.573.625l-4.285,3.928H14.841a.424.424,0,1,1,0,.848H1.514Z" transform="translate(4.735 -123.091)" fill="#fff"/>
</svg>
