<svg id="slide-right" xmlns="http://www.w3.org/2000/svg" width="20" height="20" viewBox="0 0 20 20">
  <path id="Path_7122" data-name="Path 7122" d="M182.539,0H172.362a1.683,1.683,0,0,0-1.7,1.667V4.583a.424.424,0,0,0,.848,0V1.667a.842.842,0,0,1,.848-.833h10.176a.842.842,0,0,1,.848.833V18.333a.842.842,0,0,1-.848.833H172.362a.842.842,0,0,1-.848-.833V15.417a.424.424,0,0,0-.848,0v2.917a1.683,1.683,0,0,0,1.7,1.667h10.176a1.683,1.683,0,0,0,1.7-1.667V1.667A1.683,1.683,0,0,0,182.539,0Z" transform="translate(-164.235)" fill="#fff"/>
  <path id="Path_7123" data-name="Path 7123" d="M9.466,137.442a.424.424,0,0,0,.573.625l5.088-4.664a.424.424,0,0,0,0-.625l-5.088-4.664a.424.424,0,0,0-.573.625l4.285,3.928H.424a.424.424,0,0,0,0,.848H13.751Z" transform="translate(0 -123.091)" fill="#fff"/>
</svg>
